<svg width="76" height="45" viewBox="0 0 76 45" fill="none" xmlns="http://www.w3.org/2000/svg">
<path d="M73.3209 23.2246L72.4639 22.0886C71.1106 20.962 69.5698 20.082 67.9119 19.4886L20.5751 2.54791C19.2398 2.07004 17.8577 1.73467 16.4519 1.54738C14.6749 1.17661 12.833 1.26255 11.0983 1.79717L10.8846 1.86303C10.3217 2.03651 9.7729 2.25261 9.24283 2.50944L9.21124 2.52475C8.00719 3.10817 6.90861 3.88786 5.96051 4.8319L4.67719 6.1097L3.21937 7.95914L2.72484 8.80755C2.17161 9.75667 1.71473 10.7588 1.36104 11.7989L1.13074 12.9433C1.01765 13.5053 0.970311 14.0785 0.989687 14.6515C1.01179 15.3054 1.12064 15.9536 1.31336 16.5789L1.41708 16.9154L1.71471 17.8812C1.86615 18.3726 2.06978 18.8463 2.32209 19.2944L2.56439 19.7246C2.89278 20.3078 3.33839 20.8166 3.87315 21.219C4.21117 21.4733 4.58102 21.6823 4.97329 21.8406L58.8052 43.5666L60.4568 43.991C61.8501 44.1766 63.267 44.0584 64.6102 43.6444L65.3493 43.4166C66.2723 43.1321 67.1601 42.7441 67.9958 42.2598L68.4588 41.9916L69.7164 41.1373C70.7739 40.1902 71.7474 39.1535 72.6262 38.0387L72.7634 37.8646L72.9263 37.5851C73.4795 36.636 73.9364 35.6339 74.2901 34.5938L74.822 33.0297L74.9417 32.4345C75.1286 31.5058 75.2455 30.5643 75.2914 29.6181C75.337 28.6777 75.2184 27.7365 74.9411 26.8368L74.8348 26.4918C74.4861 25.3602 73.9886 24.2799 73.3555 23.2792L73.3209 23.2246Z" fill="#524040"/>
<path d="M72.4639 22.0886L73.3209 23.2246L73.3555 23.2792C73.9886 24.2799 74.4861 25.3602 74.8348 26.4918V26.4918L74.9411 26.8368C75.2184 27.7365 75.337 28.6777 75.2914 29.6181V29.6181V29.6181C75.2455 30.5643 75.1286 31.5058 74.9417 32.4345L74.822 33.0297L74.2901 34.5938V34.5938C73.9364 35.6339 73.4795 36.636 72.9263 37.5851L72.7634 37.8646L72.6262 38.0387C71.7474 39.1535 70.7739 40.1902 69.7164 41.1373V41.1373L68.4588 41.9916L67.9958 42.2598C67.1601 42.7441 66.2723 43.1321 65.3493 43.4166V43.4166L64.6102 43.6444C63.267 44.0584 61.8501 44.1766 60.4568 43.991V43.991L58.8052 43.5666M72.4639 22.0886L71.9802 21.7817C71.464 21.4542 70.9134 21.1841 70.3383 20.9765V20.9765C69.7759 20.7734 69.1933 20.6311 68.6005 20.5521L68.4349 20.5301V20.5301C67.427 20.5313 66.4249 20.6828 65.4617 20.9797L65.1288 21.0823C64.4688 21.2857 63.8287 21.5488 63.2164 21.8684L63.0712 21.9442C62.3288 22.3317 61.6376 22.8103 61.0138 23.369V23.369C60.5814 23.7562 60.1834 24.1801 59.8241 24.6359L58.9062 25.8003L57.5797 28.076V28.076C56.6989 29.5872 56.0099 31.2024 55.5288 32.8841L55.5212 32.9109L55.3969 33.2763C55.1265 34.0715 54.9687 34.9006 54.928 35.7395L54.9128 36.0521C54.8723 36.8894 54.9778 37.7274 55.2247 38.5285V38.5285C55.4129 39.1394 55.6815 39.7225 56.0232 40.2626L56.4967 41.0111V41.0111C57.0673 41.7673 57.6939 42.4797 58.3711 43.1421L58.8052 43.5666M72.4639 22.0886V22.0886C71.1106 20.962 69.5698 20.082 67.9119 19.4886L20.5751 2.54791C19.2398 2.07004 17.8577 1.73467 16.4519 1.54738V1.54738V1.54738C14.6749 1.17661 12.833 1.26255 11.0983 1.79717L10.8846 1.86303C10.3218 2.03651 9.7729 2.25261 9.24283 2.50944L9.21124 2.52475C8.00719 3.10817 6.90862 3.88786 5.96051 4.8319L4.67719 6.1097L3.21937 7.95914L2.72484 8.80755C2.1716 9.75667 1.71473 10.7588 1.36104 11.7989V11.7989L1.13074 12.9433C1.01765 13.5053 0.970314 14.0785 0.989685 14.6515V14.6515C1.0118 15.3054 1.12064 15.9536 1.31336 16.5789L1.41708 16.9154L1.71471 17.8812C1.86615 18.3726 2.06977 18.8463 2.32209 19.2944L2.56438 19.7246C2.89278 20.3078 3.33839 20.8166 3.87316 21.219V21.219C4.21117 21.4733 4.58102 21.6823 4.9733 21.8406L58.8052 43.5666" stroke="black"/>
</svg>
