<svg width="78" height="29" viewBox="0 0 78 29" fill="none" xmlns="http://www.w3.org/2000/svg">
<path d="M72.8724 3.61099L71.6917 2.81673C70.0449 2.19321 68.3013 1.86394 66.5405 1.84392L16.2669 1.27237C14.8487 1.25624 13.4329 1.39008 12.0429 1.67166C10.2422 1.90084 8.52906 2.58296 7.06369 3.65423L6.88317 3.7862C6.40767 4.13381 5.95934 4.51713 5.54206 4.93284L5.51719 4.95762C4.56934 5.9019 3.78521 6.99733 3.19694 8.19901L2.40068 9.82556L1.62594 12.0494L1.43524 13.0127C1.2219 14.0904 1.11692 15.1867 1.12188 16.2853L1.27753 17.4423C1.35396 18.0104 1.49621 18.5677 1.70143 19.103C1.93567 19.714 2.25 20.2911 2.63617 20.8194L2.84401 21.1037L3.44039 21.9195C3.74385 22.3346 4.09089 22.716 4.47556 23.0572L4.84497 23.3849C5.34563 23.829 5.93285 24.1646 6.56963 24.3705C6.97212 24.5007 7.38992 24.5776 7.81238 24.5993L65.7868 27.5755L67.4865 27.4378C68.8641 27.1588 70.1649 26.5848 71.2996 25.7553L71.924 25.2988C72.7037 24.7288 73.4163 24.0724 74.0483 23.342L74.3985 22.9374L75.3086 21.7195C75.9992 20.4794 76.5813 19.1817 77.0484 17.8412L77.1213 17.6319L77.1841 17.3146C77.3974 16.2369 77.5024 15.1406 77.4974 14.042L77.49 12.39L77.409 11.7883C77.2827 10.8494 77.0861 9.9213 76.8207 9.01186C76.557 8.10804 76.138 7.25703 75.5823 6.49697L75.3693 6.20554C74.6705 5.24961 73.8478 4.3907 72.9229 3.65133L72.8724 3.61099Z" fill="#524040"/>
<path d="M71.6917 2.81673L72.8724 3.61099L72.9229 3.65133C73.8478 4.39071 74.6705 5.24961 75.3693 6.20554V6.20554L75.5823 6.49697C76.138 7.25703 76.557 8.10804 76.8207 9.01186V9.01186V9.01186C77.0861 9.9213 77.2827 10.8494 77.409 11.7883L77.49 12.39L77.4974 14.042V14.042C77.5024 15.1406 77.3974 16.2369 77.1841 17.3146L77.1213 17.6319L77.0484 17.8412C76.5813 19.1817 75.9992 20.4794 75.3086 21.7196V21.7196L74.3985 22.9374L74.0483 23.342C73.4163 24.0724 72.7037 24.7288 71.924 25.2988V25.2988L71.2996 25.7553C70.1649 26.5848 68.8641 27.1588 67.4865 27.4378V27.4378L65.7868 27.5755M71.6917 2.81673L71.1343 2.6844C70.5394 2.54316 69.9309 2.46751 69.3195 2.45881V2.45881C68.7216 2.4503 68.1245 2.50588 67.5384 2.62461L67.3746 2.65778V2.65778C66.4223 2.98773 65.5244 3.45787 64.7108 4.05269L64.4296 4.25827C63.872 4.66588 63.3527 5.12344 62.8782 5.62527L62.7657 5.74429C62.1903 6.35278 61.6931 7.0307 61.2856 7.76233V7.76233C61.0032 8.2694 60.7652 8.79995 60.5743 9.34804L60.0865 10.7482L59.575 13.3321V13.3321C59.2353 15.048 59.1109 16.7995 59.2048 18.5462L59.2063 18.574L59.208 18.96C59.2118 19.7999 59.3331 20.6351 59.5683 21.4414L59.656 21.7419C59.8908 22.5466 60.2639 23.3043 60.7586 23.9811V23.9811C61.1358 24.4971 61.5799 24.9607 62.0792 25.3598L62.7709 25.9128V25.9128C63.557 26.4416 64.3817 26.9105 65.238 27.3158L65.7868 27.5755M71.6917 2.81673V2.81673C70.0449 2.19321 68.3013 1.86394 66.5405 1.84392L16.2669 1.27237C14.8487 1.25624 13.4329 1.39008 12.0429 1.67166V1.67166V1.67166C10.2422 1.90084 8.52906 2.58296 7.06369 3.65423L6.88317 3.7862C6.40767 4.13381 5.95934 4.51713 5.54206 4.93284L5.51719 4.95762C4.56934 5.9019 3.78521 6.99733 3.19694 8.19901L2.40068 9.82556L1.62594 12.0494L1.43524 13.0127C1.22189 14.0904 1.11692 15.1867 1.12188 16.2853V16.2853L1.27753 17.4423C1.35396 18.0104 1.49622 18.5677 1.70143 19.103V19.103C1.93567 19.714 2.25 20.2911 2.63617 20.8194L2.84401 21.1037L3.44039 21.9195C3.74385 22.3346 4.09089 22.716 4.47556 23.0572L4.84497 23.3849C5.34563 23.829 5.93285 24.1646 6.56963 24.3705V24.3705C6.97212 24.5007 7.38992 24.5776 7.81238 24.5993L65.7868 27.5755" stroke="black"/>
</svg>
