<svg width="28" height="88" viewBox="0 0 28 88" fill="none" xmlns="http://www.w3.org/2000/svg">
<path d="M24.9547 4.06908L25.0656 4.17697C25.6979 4.79205 26.0545 5.63664 26.0545 6.51872L26.9925 82.7086C26.9974 83.1138 26.9329 83.5168 26.8015 83.9001C26.6212 84.4263 26.3195 84.9027 25.9208 85.2906L25.8654 85.3444C25.3703 85.8261 24.755 86.1663 24.0838 86.3296L23.2182 86.5401L22.715 86.6217C21.1621 86.8735 19.5914 87 18.0182 87H16.1273H13.7636H11.4C9.82788 87 8.25941 86.8488 6.71624 86.5486L6.67273 86.5401L5.3872 86.29C4.68376 86.1531 4.03537 85.8139 3.5217 85.3142C3.10708 84.9108 2.7932 84.4154 2.6057 83.8681C2.48145 83.5055 2.41458 83.1257 2.4075 82.7424L1.00329 6.69663L1 6.51872C1.62168 5.30911 2.51764 4.26166 3.61629 3.46004L3.83636 3.29947L4.12039 3.13367C5.49696 2.33016 6.99906 1.76431 8.56364 1.45989L11.8727 1H15.1818H16.9976C17.6764 1 18.3537 1.06527 19.02 1.19492C19.924 1.37082 20.8012 1.66391 21.6294 2.06677L22.2727 2.37968L24.2528 3.53545C24.5075 3.68417 24.7433 3.86337 24.9547 4.06908Z" fill="#524040"/>
<path d="M26.0545 6.51872V6.51872C26.0545 5.63664 25.6979 4.79205 25.0656 4.17697L24.9547 4.06908C24.7433 3.86337 24.5075 3.68417 24.2528 3.53545L22.2727 2.37968L21.6294 2.06677C20.8012 1.66391 19.924 1.37082 19.02 1.19492V1.19492C18.3537 1.06527 17.6764 1 16.9976 1H15.1818H11.8727L8.56364 1.45989V1.45989C6.99906 1.76431 5.49696 2.33016 4.1204 3.13367L3.83636 3.29947L3.61629 3.46004C2.51764 4.26166 1.62168 5.30911 1 6.51872V6.51872M26.0545 6.51872L25.7724 7.6167C25.6478 8.10171 25.3919 8.54302 25.033 8.89221V8.89221C24.7712 9.14686 24.461 9.34632 24.1207 9.47875L22.2727 10.1979V10.1979C20.7023 10.809 19.066 11.2348 17.3969 11.4668L16.6 11.5775V11.5775C14.4045 11.8827 12.1773 11.8827 9.98182 11.5775V11.5775L7.14545 11.1176V11.1176C5.58088 10.8132 4.07878 10.2474 2.70221 9.44387L2.41818 9.27807V9.27807C1.55134 8.70207 1.0225 7.73722 1.00329 6.69663L1 6.51872M26.0545 6.51872L26.9925 82.7086C26.9975 83.1138 26.9329 83.5168 26.8015 83.9001V83.9001C26.6212 84.4263 26.3195 84.9027 25.9208 85.2905L25.8654 85.3444C25.3703 85.8261 24.755 86.1663 24.0838 86.3296L23.2182 86.5401L22.715 86.6217C21.1621 86.8735 19.5914 87 18.0182 87V87H16.1273H13.7636H11.4V87C9.82788 87 8.25941 86.8488 6.71624 86.5486L6.67273 86.5401L5.3872 86.29C4.68376 86.1531 4.03537 85.8139 3.5217 85.3142V85.3142C3.10708 84.9108 2.7932 84.4154 2.6057 83.8681V83.8681C2.48145 83.5055 2.41458 83.1257 2.4075 82.7424L1 6.51872" stroke="black"/>
</svg>
