<svg width="69" height="59" viewBox="0 0 69 59" fill="none" xmlns="http://www.w3.org/2000/svg">
<path d="M1.47033 41.4894L1.92064 40.1395C2.84429 38.6403 4.02421 37.3151 5.40656 36.2244L44.8757 5.08018C45.989 4.20165 47.1921 3.44328 48.4649 2.81772C50.031 1.89995 51.8043 1.39436 53.6189 1.34824L53.8425 1.34255C54.4313 1.32759 55.0204 1.35749 55.6047 1.43199L55.6395 1.43644C56.9667 1.60568 58.2565 1.99459 59.456 2.58721L61.0797 3.38937L63.0509 4.67774L63.79 5.32429C64.6169 6.04759 65.3693 6.85182 66.0361 7.72495L66.6191 8.73632C66.9054 9.23296 67.133 9.76121 67.2972 10.3104C67.4847 10.9373 67.5881 11.5864 67.6047 12.2405L67.6137 12.5926L67.6394 13.6028C67.6524 14.1168 67.6104 14.6308 67.5141 15.1359L67.4215 15.6209C67.2961 16.2783 67.0359 16.9026 66.6573 17.4545C66.418 17.8033 66.134 18.1192 65.8126 18.3943L21.7124 56.1442L20.2821 57.0729C19.0207 57.6929 17.64 58.0324 16.2349 58.0681L15.4617 58.0878C14.4962 58.1123 13.531 58.0274 12.5846 57.8348L12.0602 57.7281L10.5959 57.3191C9.29175 56.7585 8.03853 56.0861 6.85027 55.3095L6.66477 55.1883L6.42127 54.9753C5.59439 54.252 4.84196 53.4477 4.17522 52.5746L3.1726 51.2616L2.86937 50.7356C2.39622 49.9149 1.98539 49.0598 1.64034 48.1775C1.29742 47.3006 1.10979 46.3708 1.08586 45.4296L1.07669 45.0687C1.0466 43.885 1.17381 42.7025 1.45499 41.5522L1.47033 41.4894Z" fill="#524040"/>
<path d="M1.92064 40.1395L1.47033 41.4894L1.45499 41.5522C1.17381 42.7025 1.0466 43.885 1.07669 45.0687V45.0687L1.08586 45.4296C1.10979 46.3708 1.29742 47.3006 1.64034 48.1775V48.1775V48.1775C1.98539 49.0598 2.39622 49.9149 2.86937 50.7356L3.1726 51.2616L4.17522 52.5746V52.5746C4.84196 53.4477 5.59439 54.252 6.42127 54.9753L6.66477 55.1883L6.85027 55.3095C8.03853 56.0861 9.29175 56.7585 10.5959 57.3191V57.3191L12.0602 57.7281L12.5846 57.8348C13.531 58.0274 14.4962 58.1123 15.4617 58.0878V58.0878L16.2349 58.0681C17.64 58.0324 19.0207 57.6929 20.2821 57.0729V57.0729L21.7124 56.1442M1.92064 40.1395L2.28127 39.6945C2.6662 39.2194 3.10201 38.788 3.58091 38.4079V38.4079C4.0493 38.0361 4.55618 37.7156 5.09287 37.4518L5.2428 37.3781V37.3781C6.19852 37.0581 7.19664 36.8823 8.2042 36.8567L8.55244 36.8479C9.24288 36.8303 9.93349 36.8757 10.6157 36.9835L10.7775 37.009C11.6047 37.1397 12.4123 37.3731 13.1817 37.7038V37.7038C13.7149 37.933 14.2273 38.2079 14.7132 38.5255L15.9543 39.3366L17.9369 41.0709V41.0709C19.2534 42.2225 20.4212 43.5339 21.4132 44.9746L21.429 44.9975L21.6633 45.3043C22.173 45.9718 22.5869 46.7074 22.8928 47.4896L23.0068 47.7811C23.3121 48.5618 23.4792 49.3897 23.5005 50.2277V50.2277C23.5167 50.8667 23.448 51.505 23.2963 52.1259L23.086 52.9862V52.9862C22.7862 53.8849 22.4193 54.7598 21.9885 55.6035L21.7124 56.1442M1.92064 40.1395V40.1395C2.84429 38.6403 4.02421 37.3151 5.40656 36.2244L44.8756 5.08018C45.989 4.20165 47.1921 3.44328 48.4649 2.81772V2.81772V2.81772C50.031 1.89995 51.8043 1.39436 53.6189 1.34824L53.8425 1.34255C54.4313 1.32759 55.0204 1.35749 55.6047 1.43199L55.6395 1.43644C56.9667 1.60568 58.2565 1.99459 59.456 2.58721L61.0797 3.38937L63.0509 4.67774L63.79 5.32429C64.6169 6.04759 65.3693 6.85182 66.0361 7.72495V7.72495L66.6191 8.73632C66.9054 9.23296 67.133 9.76121 67.2972 10.3104V10.3104C67.4847 10.9373 67.5881 11.5864 67.6047 12.2405L67.6137 12.5926L67.6394 13.6028C67.6524 14.1168 67.6104 14.6308 67.5141 15.1359L67.4215 15.6209C67.2961 16.2783 67.0359 16.9026 66.6573 17.4545V17.4545C66.418 17.8033 66.134 18.1192 65.8126 18.3943L21.7124 56.1442" stroke="black"/>
</svg>
