<svg width="69" height="64" viewBox="0 0 69 64" fill="none" xmlns="http://www.w3.org/2000/svg">
<path d="M53.2276 62.6878L51.7572 62.5168C50.0342 61.896 48.4337 60.9772 47.0287 59.8024L6.92418 26.2685C5.79306 25.3227 4.76513 24.2599 3.85754 23.0979C2.59008 21.6997 1.69822 20.0027 1.26546 18.1658L1.2123 17.9401C1.07188 17.3441 0.977106 16.7383 0.928783 16.1279L0.9259 16.0914C0.816145 14.705 0.937992 13.3101 1.28644 11.9637L1.75829 10.1405L2.65127 7.86057L3.15243 6.97115C3.71333 5.97572 4.37241 5.0389 5.11983 4.17469L6.02566 3.36638C6.47065 2.96929 6.9603 2.62529 7.48474 2.34128C8.08325 2.01716 8.72212 1.77388 9.38462 1.6178L9.74138 1.53375L10.7648 1.29264C11.2854 1.16999 11.8176 1.10339 12.3524 1.09397L12.8666 1.08491C13.5624 1.07264 14.2532 1.20456 14.8955 1.47235C15.3017 1.6417 15.684 1.8635 16.0326 2.1321L63.8485 38.9729L65.0982 40.2306C65.9976 41.3822 66.6369 42.715 66.972 44.1373L67.1563 44.9196C67.3865 45.8968 67.5052 46.8969 67.5102 47.9009L67.513 48.4572L67.4078 50.0341C67.1141 51.4804 66.6958 52.8986 66.1576 54.2728L66.0735 54.4876L65.9085 54.7804C65.3476 55.7758 64.6885 56.7127 63.9411 57.5769L62.8171 58.8764L62.3461 59.2968C61.6108 59.9529 60.8273 60.5529 60.0021 61.0918C59.1821 61.6273 58.2752 62.016 57.3219 62.2406L56.9562 62.3267C55.7571 62.6092 54.5259 62.7314 53.2947 62.69L53.2276 62.6878Z" fill="#524040"/>
<path d="M51.7572 62.5168L53.2276 62.6878L53.2947 62.69C54.5259 62.7314 55.7571 62.6092 56.9562 62.3267V62.3267L57.3219 62.2406C58.2752 62.016 59.1821 61.6273 60.0021 61.0918V61.0918V61.0918C60.8273 60.5529 61.6108 59.9529 62.3461 59.2968L62.8171 58.8764L63.9411 57.5769V57.5769C64.6885 56.7127 65.3476 55.7758 65.9085 54.7804L66.0735 54.4876L66.1576 54.2728C66.6958 52.8986 67.1141 51.4804 67.4078 50.0341V50.0341L67.513 48.4572L67.5102 47.9009C67.5052 46.8969 67.3865 45.8968 67.1563 44.9196V44.9196L66.972 44.1373C66.6369 42.715 65.9976 41.3822 65.0982 40.2306V40.2306L63.8485 38.9729M51.7572 62.5168L51.2271 62.2444C50.6617 61.9539 50.1298 61.6023 49.641 61.196V61.196C49.1628 60.7984 48.7286 60.3507 48.3458 59.8606L48.239 59.724V59.724C47.7099 58.8196 47.3188 57.8414 47.0785 56.8215L46.9955 56.4693C46.8309 55.7704 46.7303 55.058 46.695 54.3408L46.6867 54.1711C46.6439 53.3014 46.7099 52.4298 46.8832 51.5765V51.5765C47.0033 50.9853 47.1743 50.4055 47.3943 49.8437L47.9566 48.4081L49.3012 46.0217V46.0217C50.1942 44.437 51.2812 42.9699 52.5372 41.6542L52.5576 41.6329L52.8199 41.3296C53.3915 40.6687 54.0527 40.0909 54.7844 39.6131L55.0567 39.4353C55.7869 38.9584 56.5945 38.6123 57.4434 38.4123V38.4123C58.0906 38.2598 58.7553 38.1939 59.4198 38.2162L60.3406 38.2471V38.2471C61.3195 38.361 62.2884 38.5481 63.2393 38.807L63.8485 38.9729M51.7572 62.5168V62.5168C50.0342 61.896 48.4337 60.9772 47.0287 59.8024L6.92418 26.2685C5.79306 25.3227 4.76513 24.2599 3.85754 23.0979V23.0979V23.0979C2.59008 21.6997 1.69822 20.0027 1.26546 18.1658L1.2123 17.9401C1.07188 17.3441 0.977106 16.7383 0.928783 16.1279L0.925899 16.0914C0.816145 14.705 0.937991 13.3101 1.28644 11.9637L1.75829 10.1405L2.65127 7.86057L3.15243 6.97115C3.71333 5.97572 4.37241 5.0389 5.11983 4.17469V4.17469L6.02566 3.36638C6.47065 2.9693 6.9603 2.62529 7.48474 2.34128V2.34128C8.08325 2.01716 8.72212 1.77388 9.38462 1.6178L9.74138 1.53375L10.7648 1.29264C11.2854 1.16999 11.8176 1.10339 12.3524 1.09397L12.8666 1.0849C13.5624 1.07264 14.2532 1.20456 14.8955 1.47235V1.47235C15.3017 1.6417 15.684 1.8635 16.0326 2.1321L63.8485 38.9729" stroke="black"/>
</svg>
