<svg width="63" height="59" viewBox="0 0 63 59" fill="none" xmlns="http://www.w3.org/2000/svg">
<path d="M17.1165 57.9361L18.5151 57.6616C20.1028 56.9758 21.5597 56.02 22.8209 54.8367L57.391 22.4018C58.3452 21.5065 59.197 20.508 59.9307 19.4245C60.9794 18.11 61.64 16.5285 61.8379 14.8586L61.8517 14.7419C61.9149 14.2084 61.9325 13.6704 61.9042 13.1338L61.9021 13.095C61.8388 11.8963 61.5578 10.7192 61.0729 9.62108L60.3703 8.02998L59.7747 7.04034C59.4113 6.43668 59.0054 5.85969 58.56 5.31374C57.9472 4.56253 57.2621 3.87323 56.5147 3.25575L56.3943 3.15624L55.443 2.54884C54.9497 2.23388 54.4242 1.97244 53.8755 1.76895C53.2648 1.54248 52.6293 1.3893 51.9825 1.31265L51.609 1.26839L50.5711 1.14539C50.0667 1.08562 49.5578 1.07419 49.0513 1.11125L48.4787 1.15316C47.8428 1.19969 47.2217 1.36746 46.6489 1.64741C46.2619 1.83652 45.901 2.07487 45.5752 2.35651L3.9581 38.3262L2.90564 39.5223C2.18027 40.5935 1.72227 41.8229 1.57003 43.1076L1.49302 43.7574C1.39053 44.6223 1.39802 45.4966 1.5153 46.3595L1.58192 46.8498L1.69137 47.3532C1.81471 47.9206 1.97912 48.4783 2.18329 49.0219C2.43985 49.7049 2.75823 50.363 3.13448 50.9881L3.30102 51.2648C3.57352 51.7176 3.87795 52.1503 4.21199 52.5598C4.67163 53.1232 5.18541 53.6401 5.74597 54.1033L6.14737 54.4349L7.39163 55.4628L9.08495 56.544L10.3807 57.1378C11.2392 57.5313 12.1539 57.7882 13.0918 57.8994L13.4726 57.9445C14.6659 58.0859 15.8717 58.0852 17.0648 57.9423L17.1165 57.9361Z" fill="#524040"/>
<path d="M18.5151 57.6616L17.1165 57.9361L17.0648 57.9423C15.8717 58.0852 14.6659 58.0859 13.4726 57.9445V57.9445L13.0918 57.8994C12.1539 57.7882 11.2392 57.5313 10.3807 57.1378V57.1378L9.08495 56.544L7.39163 55.4628L6.14737 54.4349L5.74597 54.1033C5.18541 53.6401 4.67163 53.1232 4.21199 52.5598V52.5598C3.87795 52.1503 3.57352 51.7176 3.30102 51.2648L3.13448 50.9881C2.75824 50.363 2.43985 49.7049 2.1833 49.0219V49.0219C1.97912 48.4783 1.81471 47.9206 1.69137 47.3532L1.58192 46.8498L1.5153 46.3595C1.39802 45.4966 1.39053 44.6223 1.49302 43.7574V43.7574L1.57003 43.1076C1.72227 41.8229 2.18027 40.5935 2.90564 39.5223V39.5223L3.9581 38.3262M18.5151 57.6616L19.0308 57.3583C19.5163 57.0728 19.969 56.7349 20.3809 56.3507L20.5798 56.1652C20.8708 55.8938 21.1302 55.5906 21.3533 55.2611V55.2611C21.4973 55.0485 21.6257 54.8257 21.7373 54.5945L21.7523 54.5635C22.0308 53.9868 22.2115 53.3679 22.2868 52.7319L22.3696 52.0335C22.4441 51.4045 22.4543 50.7696 22.3999 50.1385L22.3915 50.0413C22.3241 49.2598 22.15 48.4912 21.8742 47.7569V47.7569C21.6902 47.267 21.4618 46.7949 21.1919 46.3465L20.9564 45.9551C20.6234 45.4019 20.2513 44.8731 19.8431 44.3727L18.8658 43.1747V43.1747C17.8095 41.8798 16.5996 40.7182 15.2628 39.7154L15.1845 39.6566L14.9398 39.4545C14.2762 38.9063 13.5439 38.4471 12.7615 38.0885L12.5179 37.9769C11.7432 37.6218 10.9179 37.39 10.0717 37.2897V37.2897C9.4285 37.2135 8.77856 37.2139 8.13549 37.2909L7.25583 37.3963L5.85722 37.6708L3.9581 38.3262M18.5151 57.6616V57.6616C20.1028 56.9758 21.5597 56.02 22.8209 54.8367L57.391 22.4018C58.3452 21.5065 59.197 20.508 59.9307 19.4245V19.4245V19.4245C60.9794 18.11 61.64 16.5285 61.8379 14.8586L61.8517 14.7419C61.9149 14.2084 61.9325 13.6704 61.9042 13.1338L61.9021 13.095C61.8388 11.8963 61.5578 10.7192 61.0729 9.62108L60.3703 8.02998L59.7747 7.04034C59.4113 6.43668 59.0054 5.85969 58.56 5.31374V5.31374C57.9472 4.56253 57.2621 3.87323 56.5147 3.25575L56.3943 3.15624L55.443 2.54884C54.9497 2.23388 54.4242 1.97244 53.8755 1.76895V1.76895C53.2648 1.54248 52.6293 1.3893 51.9825 1.31265L51.609 1.26839L50.5711 1.14539C50.0667 1.08562 49.5578 1.07419 49.0513 1.11126L48.4787 1.15316C47.8428 1.19969 47.2217 1.36746 46.6489 1.64741V1.64741C46.2619 1.83652 45.901 2.07487 45.5752 2.35651L3.9581 38.3262" stroke="black"/>
</svg>
