<svg width="81" height="38" viewBox="0 0 81 38" fill="none" xmlns="http://www.w3.org/2000/svg">
<path d="M4.52903 13.1079L5.61469 12.1016C7.20643 11.1957 8.94497 10.5766 10.751 10.2725L62.3022 1.59143C63.7562 1.34659 65.232 1.25619 66.705 1.32176C68.5914 1.26738 70.4607 1.69264 72.138 2.55772L72.344 2.66399C72.8882 2.94467 73.4102 3.26642 73.9055 3.62645L73.9351 3.64794C75.06 4.46566 76.0409 5.46497 76.8376 6.60489L77.9165 8.14852L79.0687 10.309L79.4188 11.268C79.8107 12.3413 80.0943 13.4511 80.2652 14.5808L80.2907 15.7946C80.3032 16.3908 80.2464 16.9865 80.1214 17.5697C79.9787 18.2352 79.7483 18.8788 79.4363 19.4837L79.2683 19.8095L78.7863 20.744C78.5411 21.2193 78.2458 21.667 77.9054 22.0795L77.5781 22.4762C77.1351 23.013 76.5859 23.4522 75.9648 23.7663C75.5721 23.9649 75.1551 24.1113 74.7244 24.2016L15.6478 36.5934L13.8797 36.7257C12.4199 36.6607 10.9916 36.2802 9.69292 35.6104L8.97862 35.242C8.08635 34.7818 7.2491 34.2219 6.48291 33.5732L6.05831 33.2137L4.9283 32.1087C4.02007 30.9455 3.21422 29.7058 2.51975 28.4036L2.4112 28.2001L2.29591 27.8843C1.904 26.8111 1.62046 25.7013 1.44951 24.5716L1.19246 22.8727L1.17919 22.2415C1.15849 21.2562 1.21178 20.2708 1.33861 19.2935C1.46466 18.3223 1.75873 17.3804 2.20768 16.51L2.3799 16.176C2.94459 15.0812 3.65204 14.0661 4.48373 13.1574L4.52903 13.1079Z" fill="#524040"/>
<path d="M5.61469 12.1016L4.52904 13.1079L4.48373 13.1574C3.65204 14.0661 2.94459 15.0812 2.3799 16.176V16.176L2.20768 16.51C1.75873 17.3804 1.46466 18.3223 1.33861 19.2935V19.2935V19.2935C1.21178 20.2708 1.15849 21.2562 1.17919 22.2415L1.19246 22.8727L1.44951 24.5716V24.5716C1.62046 25.7013 1.904 26.8111 2.29591 27.8843L2.4112 28.2001L2.51975 28.4036C3.21422 29.7058 4.02007 30.9455 4.9283 32.1087V32.1087L6.05831 33.2137L6.48291 33.5732C7.2491 34.2219 8.08635 34.7818 8.97862 35.242V35.242L9.69292 35.6104C10.9916 36.2802 12.4199 36.6607 13.8797 36.7257V36.7257L15.6478 36.5935M5.61469 12.1016L6.1663 11.8757C6.75455 11.6349 7.36741 11.4592 7.99392 11.3519V11.3519C8.60689 11.2469 9.22935 11.2078 9.85064 11.2355L10.0239 11.2432V11.2432C11.055 11.4289 12.0527 11.7675 12.9839 12.2478L13.3055 12.4137C13.9436 12.7429 14.5504 13.1295 15.1184 13.5688L15.2528 13.6728C15.9415 14.2055 16.5609 14.8222 17.0968 15.5086V15.5086C17.4681 15.9841 17.7975 16.4909 18.0814 17.0232L18.807 18.3837L19.7465 20.9566V20.9566C20.3704 22.6652 20.7788 24.445 20.9622 26.2546L20.9652 26.284L21.0252 26.6804C21.1559 27.5444 21.1652 28.4225 21.0527 29.2891L21.0109 29.6116C20.8986 30.4764 20.6368 31.3152 20.237 32.0903V32.0903C19.9322 32.6813 19.5503 33.2292 19.1014 33.7197L18.4794 34.3993V34.3993C17.7567 35.0692 16.9846 35.684 16.1698 36.2383L15.6478 36.5935M5.61469 12.1016V12.1016C7.20644 11.1957 8.94497 10.5766 10.751 10.2725L62.3022 1.59143C63.7562 1.34659 65.232 1.25619 66.705 1.32176V1.32176V1.32176C68.5914 1.26738 70.4607 1.69264 72.138 2.55772L72.344 2.66399C72.8882 2.94467 73.4102 3.26642 73.9055 3.62645L73.9351 3.64794C75.06 4.46566 76.0409 5.46497 76.8376 6.60489L77.9165 8.14852L79.0687 10.309L79.4188 11.268C79.8107 12.3413 80.0943 13.4511 80.2652 14.5808V14.5808L80.2907 15.7945C80.3032 16.3908 80.2464 16.9865 80.1214 17.5697V17.5697C79.9787 18.2352 79.7483 18.8788 79.4363 19.4837L79.2683 19.8095L78.7863 20.744C78.5411 21.2193 78.2458 21.667 77.9054 22.0795L77.5781 22.4762C77.1351 23.013 76.5859 23.4522 75.9648 23.7663V23.7663C75.5721 23.9649 75.1551 24.1113 74.7244 24.2016L15.6478 36.5935" stroke="black"/>
</svg>
