<svg width="72" height="60" viewBox="0 0 72 60" fill="none" xmlns="http://www.w3.org/2000/svg">
<path d="M1.5036 41.368L2.00719 39.976C3.00661 38.4413 4.26794 37.0941 5.73363 35.9959L47.5704 4.64987C48.7504 3.76577 50.0205 3.00894 51.3597 2.392C53.0113 1.47895 54.8676 1 56.7548 1H56.9867C57.599 1 58.2104 1.04667 58.8156 1.13961L58.8517 1.14516C60.2264 1.35625 61.5562 1.79473 62.7868 2.44264L64.4532 3.32L66.4676 4.712L67.2184 5.40376C68.0587 6.17798 68.8194 7.03432 69.4892 7.96L70.0683 9.02705C70.3527 9.55124 70.5753 10.1067 70.7315 10.6823C70.9097 11.3392 71 12.0168 71 12.6975V13.064V14.1154C71 14.6503 70.9428 15.1836 70.8293 15.7062L70.7202 16.2088C70.5726 16.8889 70.2858 17.5311 69.8778 18.0949C69.6199 18.4514 69.3163 18.7727 68.9749 19.0504L22.1511 57.144L20.6403 58.072C19.3131 58.6834 17.8693 59 16.408 59H15.6043C14.6004 59 13.5996 58.8862 12.6213 58.6609L12.0791 58.536L10.5683 58.072C9.22793 57.4545 7.94348 56.7221 6.72935 55.8831L6.53957 55.752L6.29237 55.5242C5.45208 54.75 4.69137 53.8937 4.02158 52.968L3.01439 51.576L2.71324 51.0211C2.24321 50.1549 1.83886 49.2547 1.5036 48.328C1.17041 47.407 1 46.4351 1 45.4557V45.08C1 43.8481 1.16343 42.6217 1.48602 41.4328L1.5036 41.368Z" fill="#524040"/>
<path d="M2.00719 39.976L1.5036 41.368L1.48602 41.4328C1.16343 42.6217 1 43.8481 1 45.08V45.08V45.4557C1 46.4351 1.17041 47.407 1.5036 48.328V48.328V48.328C1.83886 49.2547 2.24321 50.1549 2.71324 51.0211L3.01439 51.576L4.02158 52.968V52.968C4.69137 53.8937 5.45208 54.75 6.29237 55.5242L6.53957 55.752L6.72935 55.8831C7.94348 56.7221 9.22793 57.4545 10.5683 58.072V58.072L12.0791 58.536L12.6213 58.6609C13.5996 58.8862 14.6004 59 15.6043 59V59H16.408C17.8693 59 19.3131 58.6834 20.6403 58.072V58.072L22.1511 57.144M2.00719 39.976L2.39391 39.5224C2.80632 39.0387 3.27048 38.6017 3.77808 38.2191V38.2191C4.27472 37.8448 4.81004 37.5248 5.37489 37.2645L5.53237 37.192V37.192C6.53396 36.8844 7.57585 36.728 8.6236 36.728H8.98549C9.7035 36.728 10.42 36.7935 11.1261 36.9236L11.2932 36.9544C12.1496 37.1122 12.9828 37.3763 13.7736 37.7406V37.7406C14.3216 37.9931 14.8467 38.2925 15.343 38.6354L16.6115 39.512L18.6259 41.368V41.368C19.9636 42.6005 21.1424 43.995 22.135 45.5193L22.1511 45.544L22.3861 45.8688C22.8984 46.5768 23.3091 47.3529 23.6064 48.1746L23.717 48.4805C24.0137 49.3006 24.1655 50.166 24.1655 51.0381V51.0381C24.1655 51.7031 24.0772 52.3651 23.9031 53.0069L23.6619 53.896V53.896C23.3266 54.8227 22.9223 55.7229 22.4522 56.5891L22.1511 57.144M2.00719 39.976V39.976C3.00661 38.4413 4.26794 37.0941 5.73363 35.9959L47.5704 4.64987C48.7504 3.76577 50.0205 3.00894 51.3597 2.392V2.392V2.392C53.0113 1.47895 54.8676 1 56.7548 1H56.9867C57.599 1 58.2104 1.04667 58.8156 1.13961L58.8517 1.14516C60.2264 1.35625 61.5562 1.79473 62.7868 2.44264L64.4532 3.32L66.4676 4.712L67.2184 5.40376C68.0587 6.17798 68.8194 7.03432 69.4892 7.96V7.96L70.0683 9.02705C70.3527 9.55124 70.5753 10.1067 70.7315 10.6823V10.6823C70.9097 11.3392 71 12.0168 71 12.6975V13.064V14.1154C71 14.6503 70.9428 15.1836 70.8293 15.7062L70.7202 16.2088C70.5726 16.8889 70.2858 17.5311 69.8778 18.0949V18.0949C69.6199 18.4514 69.3163 18.7727 68.9749 19.0504L22.1511 57.144" stroke="black"/>
</svg>
